<?xml version="1.0" standalone="no"?>
<!DOCTYPE svg PUBLIC "-//W3C//DTD SVG 20010904//EN"
 "http://www.w3.org/TR/2001/REC-SVG-20010904/DTD/svg10.dtd">
<svg version="1.0" xmlns="http://www.w3.org/2000/svg"
 width="1065.000000pt" height="1065.000000pt" viewBox="0 0 1065.000000 1065.000000"
 preserveAspectRatio="xMidYMid meet">
<metadata>
Created by potrace 1.14, written by Peter Selinger 2001-2017
</metadata>
<g transform="translate(0.000000,1065.000000) scale(0.100000,-0.100000)"
fill="#000000" stroke="none">
<path d="M5137 10604 c-3 -4 -35 -7 -70 -8 -36 -1 -71 -7 -80 -14 -9 -8 -18
-9 -21 -3 -4 5 -28 8 -54 6 -156 -13 -197 -17 -203 -21 -4 -2 -28 -6 -55 -9
-27 -3 -71 -8 -99 -12 -27 -3 -57 -7 -65 -8 -15 -2 -66 -12 -205 -42 -38 -8
-92 -19 -120 -25 -27 -6 -61 -14 -75 -19 -14 -4 -50 -13 -80 -20 -52 -11 -233
-63 -275 -78 -11 -4 -65 -22 -120 -40 -55 -18 -129 -45 -165 -61 -36 -15 -99
-40 -140 -56 -90 -33 -524 -249 -630 -313 -41 -24 -79 -51 -83 -58 -4 -7 -14
-13 -21 -13 -11 0 -61 -32 -251 -160 -62 -42 -247 -183 -296 -224 -19 -17 -49
-42 -65 -55 -58 -48 -199 -176 -207 -188 -4 -7 -29 -32 -54 -55 -107 -98 -257
-254 -367 -382 -51 -59 -65 -81 -54 -87 10 -7 10 -9 0 -9 -23 0 -119 -108
-186 -210 -20 -30 -52 -75 -71 -100 -19 -25 -35 -51 -35 -57 0 -7 -4 -13 -10
-13 -5 0 -10 -6 -10 -14 0 -8 -4 -16 -9 -18 -10 -3 -131 -193 -131 -205 0 -4
-9 -19 -20 -33 -11 -14 -20 -32 -20 -41 0 -9 -7 -23 -16 -30 -9 -8 -33 -46
-53 -84 -134 -263 -171 -339 -196 -405 -15 -41 -38 -98 -51 -125 -12 -28 -26
-64 -30 -80 -4 -17 -13 -39 -19 -50 -26 -42 -136 -387 -157 -492 -6 -35 -15
-63 -19 -63 -5 0 -6 -9 -4 -20 2 -11 0 -22 -6 -25 -5 -4 -9 -16 -9 -29 0 -13
-9 -58 -20 -101 -11 -42 -22 -91 -24 -109 -2 -17 -9 -55 -15 -85 -6 -29 -11
-73 -11 -97 0 -24 -4 -44 -8 -44 -10 0 -34 -214 -34 -291 1 -29 -3 -60 -8 -69
-5 -9 -9 -72 -9 -141 -1 -68 -1 -131 -1 -139 -5 -326 -4 -364 7 -367 7 -3 9
-13 4 -31 -4 -15 -7 -38 -5 -52 4 -29 10 -115 19 -245 3 -49 7 -97 10 -105 2
-8 7 -40 10 -70 3 -30 10 -75 15 -100 6 -25 22 -110 36 -190 15 -80 33 -160
40 -179 8 -18 11 -37 8 -43 -3 -5 -1 -15 5 -22 6 -7 12 -27 14 -44 2 -18 7
-35 10 -39 4 -3 7 -17 7 -29 0 -13 5 -26 10 -29 6 -3 10 -14 10 -23 0 -24 52
-206 60 -212 4 -3 11 -21 15 -40 9 -43 93 -262 106 -274 5 -6 9 -20 9 -32 0
-12 6 -27 13 -33 8 -6 20 -29 27 -52 8 -23 19 -43 26 -46 6 -2 10 -13 7 -24
-3 -11 1 -21 9 -24 7 -3 15 -17 16 -30 2 -22 23 -72 60 -142 7 -13 17 -33 24
-45 6 -13 22 -45 35 -72 14 -28 33 -50 44 -53 15 -4 17 -8 8 -14 -11 -6 -10
-11 3 -26 8 -10 19 -28 22 -40 4 -13 12 -23 17 -23 5 0 9 -9 9 -19 0 -11 10
-28 23 -38 13 -10 22 -23 20 -29 -2 -6 8 -25 22 -42 14 -16 25 -33 25 -37 0
-9 159 -246 205 -305 19 -25 39 -55 44 -67 6 -11 23 -29 40 -39 16 -10 28 -21
25 -26 -3 -4 0 -13 5 -20 6 -7 29 -36 51 -65 22 -29 49 -57 60 -63 11 -6 20
-15 20 -21 0 -12 109 -142 124 -148 6 -2 20 -16 31 -30 19 -25 140 -147 181
-183 10 -9 55 -53 99 -98 44 -45 103 -98 130 -118 28 -20 57 -44 65 -53 14
-16 143 -120 205 -166 78 -58 192 -140 221 -158 17 -11 71 -47 120 -79 49 -32
116 -73 149 -90 33 -17 62 -33 65 -36 10 -10 56 -35 200 -108 80 -41 149 -78
155 -83 5 -5 15 -9 22 -9 7 0 65 -25 129 -56 64 -30 121 -53 127 -51 7 2 28
-7 47 -20 19 -12 42 -23 50 -23 9 0 35 -9 58 -20 50 -24 151 -52 163 -44 5 3
9 1 9 -4 0 -14 64 -38 193 -72 61 -16 135 -36 163 -44 29 -8 65 -16 80 -17 16
-2 34 -6 39 -10 12 -8 80 -22 120 -24 17 -1 48 -6 70 -12 133 -33 138 -34 146
-22 5 9 11 8 23 -3 10 -10 44 -18 98 -23 46 -4 102 -11 125 -16 73 -16 280
-24 593 -24 322 0 499 8 530 25 13 7 21 7 25 0 4 -7 11 -7 18 -2 7 5 30 9 52
10 64 3 138 12 170 22 17 4 55 11 85 14 31 3 148 26 260 52 113 25 217 49 233
51 15 3 27 9 27 14 0 5 10 9 23 9 31 0 215 58 222 70 3 6 19 10 36 10 16 0 29
4 29 9 0 4 17 11 38 13 20 3 57 14 82 25 25 11 95 39 155 63 225 88 685 326
685 353 0 7 12 13 26 14 15 0 29 5 33 11 3 5 22 17 41 27 19 9 53 31 75 47 34
25 91 63 154 103 9 6 20 16 24 23 5 7 12 10 18 7 5 -4 12 1 15 9 3 9 11 16 17
16 5 0 25 16 43 35 19 18 34 30 34 25 0 -10 18 4 92 72 25 24 51 42 56 40 6
-2 18 8 27 22 9 14 24 28 33 31 18 6 39 24 191 163 125 115 191 181 191 192 0
5 6 10 13 12 7 2 55 50 107 108 51 58 96 107 99 110 4 3 30 34 58 70 29 36 60
74 71 85 34 36 111 145 118 168 4 12 19 33 34 47 16 14 40 43 54 65 14 22 42
60 61 85 19 25 33 50 31 56 -2 5 7 21 21 34 26 25 133 201 133 219 0 6 4 11 9
11 5 0 19 21 31 48 30 64 57 113 69 125 6 6 11 21 11 34 0 13 4 23 9 23 5 0
14 15 21 33 6 17 16 39 21 47 35 58 60 114 55 126 -3 8 -1 14 4 14 11 0 70
118 70 142 0 10 5 18 11 18 5 0 8 4 4 10 -3 5 -1 18 5 30 5 11 15 29 21 41 31
62 145 406 164 494 2 11 9 36 15 55 13 39 29 101 35 141 2 14 9 38 15 53 13
35 13 36 -6 36 -13 0 -13 3 4 17 14 13 25 45 37 114 9 52 15 100 14 105 -2 5
3 27 9 49 7 22 12 57 12 78 0 21 4 46 9 55 5 9 12 55 15 102 4 47 9 96 12 110
14 80 22 877 8 922 -3 9 -12 76 -20 150 -35 301 -54 421 -72 436 -11 8 -13 15
-5 23 11 11 0 84 -17 104 -5 6 -10 29 -11 50 -2 22 -6 47 -10 55 -4 8 -16 53
-27 100 -33 137 -53 204 -68 227 -8 12 -14 34 -14 48 0 14 -7 28 -15 31 -12 5
-13 10 -4 20 6 8 7 14 2 14 -5 0 -15 23 -21 51 -7 28 -18 65 -26 83 -7 17 -26
64 -41 103 -14 40 -31 75 -36 79 -5 3 -9 13 -9 22 0 21 -64 157 -78 166 -6 3
-8 14 -5 25 3 11 -4 25 -19 37 -14 11 -23 24 -21 31 5 14 -72 170 -121 243
-20 30 -36 59 -36 64 0 31 -294 482 -335 515 -14 10 -22 21 -19 24 3 3 1 12
-5 19 -6 7 -26 32 -43 55 -103 130 -129 163 -193 237 -65 76 -336 352 -380
388 -11 8 -27 24 -35 34 -22 28 -154 142 -266 232 -110 88 -144 114 -204 156
-30 21 -57 41 -60 45 -9 12 -59 41 -70 41 -5 0 -19 8 -29 18 -34 30 -50 42
-57 42 -4 0 -17 9 -28 19 -12 11 -47 33 -78 50 -32 16 -73 41 -91 55 -18 14
-58 37 -89 51 -31 14 -62 32 -68 40 -7 8 -18 15 -26 15 -7 0 -35 13 -61 28
-26 15 -64 34 -83 42 -19 7 -46 21 -60 30 -39 25 -80 41 -80 30 0 -5 -10 1
-23 14 -13 13 -50 33 -83 45 -32 12 -82 33 -111 47 -28 13 -57 24 -63 24 -6 0
-30 9 -53 19 -194 88 -688 223 -977 267 -8 1 -37 6 -65 12 -27 6 -90 13 -140
17 -49 4 -94 10 -100 13 -13 8 -11 8 -150 17 -66 3 -147 9 -180 11 -127 10
-425 12 -431 3 -3 -5 -10 -9 -15 -9 -6 0 -7 5 -4 10 7 11 2 13 -8 4z"/>
</g>
</svg>
