<?xml version="1.0" standalone="no"?>
<!DOCTYPE svg PUBLIC "-//W3C//DTD SVG 20010904//EN"
 "http://www.w3.org/TR/2001/REC-SVG-20010904/DTD/svg10.dtd">
<svg version="1.0" xmlns="http://www.w3.org/2000/svg"
 width="1400.000000pt" height="1400.000000pt" viewBox="0 0 1400.000000 1400.000000"
 preserveAspectRatio="xMidYMid meet">
<metadata>
Created by potrace 1.14, written by Peter Selinger 2001-2017
</metadata>
<g transform="translate(0.000000,1400.000000) scale(0.100000,-0.100000)"
fill="#000000" stroke="none">
<path d="M6739 12996 c-2 -2 -58 -6 -124 -10 -66 -4 -138 -9 -160 -11 -22 -2
-65 -6 -95 -9 -60 -6 -125 -14 -180 -22 -19 -3 -51 -7 -70 -10 -383 -49 -990
-217 -1375 -379 -16 -7 -53 -22 -81 -33 -78 -32 -197 -88 -334 -157 -204 -102
-298 -155 -479 -268 -551 -344 -1064 -790 -1456 -1268 -11 -13 -40 -49 -65
-79 -25 -30 -52 -65 -60 -76 -15 -22 -113 -151 -128 -169 -5 -6 -47 -67 -93
-135 -232 -343 -420 -689 -568 -1045 -23 -55 -46 -109 -51 -120 -81 -185 -227
-662 -280 -915 -12 -58 -24 -114 -26 -125 -6 -31 -33 -176 -39 -212 -12 -77
-14 -91 -20 -143 -3 -30 -8 -62 -10 -70 -2 -8 -7 -49 -10 -90 -3 -41 -7 -86
-10 -98 -12 -62 -20 -295 -20 -562 1 -328 7 -453 35 -680 6 -47 12 -103 15
-125 13 -135 95 -547 144 -730 67 -247 192 -616 265 -778 8 -18 31 -70 51
-117 124 -282 307 -613 497 -897 78 -117 258 -362 291 -398 7 -7 22 -26 34
-42 12 -15 31 -39 43 -53 12 -14 42 -50 68 -80 26 -30 67 -77 92 -105 77 -87
412 -418 490 -485 41 -35 80 -69 86 -74 6 -6 28 -24 49 -41 21 -16 43 -34 49
-40 97 -88 415 -316 606 -435 572 -358 1221 -625 1860 -765 63 -14 122 -27
131 -29 9 -3 34 -7 55 -10 22 -4 62 -10 89 -16 51 -10 250 -40 295 -45 14 -1
59 -6 100 -10 41 -4 89 -9 105 -11 240 -26 928 -26 1085 0 14 3 60 7 102 11
42 3 85 7 95 9 10 2 43 7 73 11 74 9 118 16 144 21 11 3 39 7 61 10 103 15
399 81 575 130 462 126 902 306 1328 543 587 326 1167 797 1602 1301 36 41 67
77 70 80 10 9 154 192 213 270 31 41 65 86 75 100 62 81 267 402 343 537 255
450 456 945 583 1433 30 116 42 166 72 305 2 11 7 36 10 55 4 19 8 44 11 55
12 58 33 186 38 230 3 27 7 57 9 65 6 20 16 100 21 169 3 31 7 74 10 96 27
231 27 834 0 1100 -10 96 -16 152 -20 180 -3 17 -9 68 -15 115 -17 133 -82
474 -111 585 -6 22 -12 47 -14 56 -3 17 -30 112 -66 234 -50 170 -130 396
-194 550 -270 645 -605 1181 -1076 1718 -84 94 -394 404 -488 487 -41 36 -79
70 -85 75 -34 31 -190 158 -241 196 -33 24 -62 46 -65 50 -12 13 -227 164
-332 232 -238 156 -597 351 -818 447 -41 18 -95 41 -120 52 -25 10 -54 23 -65
28 -158 70 -632 223 -820 265 -244 55 -263 59 -322 70 -186 33 -189 33 -278
45 -44 6 -91 13 -105 15 -27 4 -97 11 -200 20 -36 3 -83 8 -105 11 -46 6 -691
15 -696 10z"/>
</g>
</svg>
