<?xml version="1.0" standalone="no"?>
<!DOCTYPE svg PUBLIC "-//W3C//DTD SVG 20010904//EN"
 "http://www.w3.org/TR/2001/REC-SVG-20010904/DTD/svg10.dtd">
<svg version="1.0" xmlns="http://www.w3.org/2000/svg"
 width="1200.000000pt" height="1200.000000pt" viewBox="0 0 1200.000000 1200.000000"
 preserveAspectRatio="xMidYMid meet">
<metadata>
Created by potrace 1.14, written by Peter Selinger 2001-2017
</metadata>
<g transform="translate(0.000000,1200.000000) scale(0.100000,-0.100000)"
fill="#000000" stroke="none">
<path d="M5718 11995 c-2 -2 -53 -6 -114 -9 -62 -3 -127 -8 -145 -10 -19 -3
-61 -7 -94 -10 -79 -7 -227 -27 -380 -51 -320 -51 -817 -189 -1151 -320 -230
-91 -538 -234 -699 -325 -165 -93 -210 -120 -304 -179 -399 -251 -728 -511
-1046 -828 -181 -181 -200 -201 -404 -438 -51 -59 -179 -225 -257 -335 -150
-208 -255 -376 -394 -625 -68 -121 -229 -455 -245 -505 -4 -14 -11 -29 -15
-35 -8 -11 -72 -175 -124 -317 -48 -130 -149 -467 -171 -568 -2 -8 -12 -53
-23 -100 -28 -118 -74 -360 -86 -455 -3 -22 -7 -49 -10 -60 -4 -20 -11 -85
-22 -195 -3 -30 -7 -65 -9 -78 -26 -160 -26 -899 -1 -1112 2 -14 7 -56 11 -94
4 -38 9 -79 11 -90 2 -12 5 -41 8 -66 21 -203 120 -664 193 -900 15 -47 28
-93 30 -102 4 -24 111 -326 129 -365 8 -17 14 -34 14 -38 0 -4 6 -21 14 -38 8
-18 40 -90 72 -162 143 -330 338 -680 542 -975 71 -103 190 -266 231 -316 15
-17 33 -40 41 -50 183 -232 537 -597 774 -799 32 -28 63 -55 70 -61 69 -64
401 -309 551 -406 200 -130 192 -125 390 -236 122 -68 356 -184 490 -241 66
-29 129 -56 140 -61 188 -82 747 -259 900 -286 17 -3 58 -11 91 -19 72 -16 77
-18 259 -50 51 -9 297 -44 350 -49 218 -24 341 -30 645 -30 272 -1 487 6 560
18 14 2 59 7 100 11 41 3 118 12 170 20 52 8 114 17 138 20 24 3 78 12 120 20
674 124 1321 360 1912 700 116 66 405 249 420 265 3 3 19 14 35 24 17 11 73
51 125 90 617 460 1142 1028 1530 1656 29 47 61 97 71 112 11 15 19 29 19 31
0 2 23 44 51 93 93 160 252 489 319 659 4 11 15 36 23 55 65 149 216 609 242
740 2 8 10 42 18 75 21 80 83 396 92 465 4 30 9 64 11 75 9 44 20 130 39 320
27 264 27 837 0 1090 -1 17 -6 62 -10 100 -3 39 -8 81 -10 95 -2 14 -7 48 -10
75 -6 42 -37 241 -49 310 -25 137 -97 433 -141 575 -14 47 -28 94 -30 106 -3
11 -29 90 -59 175 -162 459 -386 912 -651 1314 -432 656 -1020 1250 -1672
1688 -76 51 -154 102 -173 114 -19 11 -61 37 -94 57 -32 20 -60 36 -61 36 -2
0 -41 22 -87 48 -349 202 -840 408 -1243 521 -60 18 -123 35 -140 40 -178 52
-629 139 -805 156 -30 3 -71 7 -90 10 -19 2 -69 7 -110 11 -41 3 -93 8 -115
11 -47 5 -702 13 -707 8z"/>
</g>
</svg>
